<svg width="24" height="24" viewBox="0 0 24 24" fill="none" xmlns="http://www.w3.org/2000/svg">
<path d="M6.59475 17.4052C6.74137 17.5519 6.933 17.625 7.125 17.625C7.317 17.625 7.50862 17.5519 7.65525 17.4052L12 13.0605L16.3447 17.4052C16.4914 17.5519 16.683 17.625 16.875 17.625C17.067 17.625 17.2586 17.5519 17.4052 17.4052C17.6981 17.1124 17.6981 16.6376 17.4052 16.3447L13.0605 12L17.4052 7.65525C17.6981 7.36237 17.6981 6.88762 17.4052 6.59475C17.1124 6.30187 16.6376 6.30187 16.3447 6.59475L12 10.9395L7.65525 6.59475C7.36237 6.30187 6.88762 6.30187 6.59475 6.59475C6.30187 6.88762 6.30187 7.36237 6.59475 7.65525L10.9395 12L6.59475 16.3447C6.30187 16.6376 6.30187 17.1124 6.59475 17.4052Z" fill="#181b21"/>
<path d="M12 24C15.2051 24 18.2186 22.7516 20.4847 20.4851C22.7516 18.2186 24 15.2051 24 12C24 8.79488 22.7516 5.78137 20.4847 3.51525C18.2186 1.24837 15.2051 0 12 0C8.79488 0 5.78137 1.24837 3.51525 3.51488C1.24837 5.78138 0 8.79488 0 12C0 15.2051 1.24837 18.2186 3.51525 20.4847C5.78137 22.7516 8.79488 24 12 24ZM4.57575 4.57575C6.55875 2.59237 9.19537 1.5 12 1.5C14.8046 1.5 17.4413 2.59237 19.4243 4.57575C21.4076 6.55875 22.5 9.19537 22.5 12C22.5 14.8046 21.4076 17.4413 19.4243 19.4243C17.4413 21.4076 14.8046 22.5 12 22.5C9.19537 22.5 6.55875 21.4076 4.57575 19.4243C2.59237 17.4413 1.5 14.8046 1.5 12C1.5 9.19537 2.59237 6.55875 4.57575 4.57575Z" fill="#181b21"/>
</svg>
