<svg width="24" height="24" viewBox="0 0 24 24" fill="none" xmlns="http://www.w3.org/2000/svg">
<path d="M5.45454 13.0909V17.4545C5.45454 18.057 5.94298 18.5455 6.54545 18.5455H10.9091C11.1984 18.5455 11.4759 18.4305 11.6804 18.2259L23.6804 6.22589C24.1064 5.79985 24.1064 5.10916 23.6804 4.68313L19.3167 0.319491C19.1123 0.114982 18.8348 0 18.5455 0C18.2561 0 17.9786 0.114982 17.7741 0.319564L5.77411 12.3196C5.56945 12.5241 5.45454 12.8016 5.45454 13.0909ZM7.63636 13.5428L18.5455 2.63367L21.3663 5.45455L10.4572 16.3636H7.63636V13.5428Z" fill="#181b21"/>
<path d="M22.9091 10.9092C22.3066 10.9092 21.8182 11.3976 21.8182 12.0001V21.8182H2.18182V2.18182H12C12.6025 2.18182 13.0909 1.69338 13.0909 1.09091C13.0909 0.488436 12.6025 0 12 0H1.09091C0.488436 0 0 0.488436 0 1.09091V22.9091C0 23.5116 0.488436 24 1.09091 24H22.9091C23.5116 24 24 23.5116 24 22.9091V12.0001C24 11.3975 23.5116 10.9092 22.9091 10.9092Z" fill="#181b21"/>
</svg>
